<?xml version="1.0" encoding="UTF-8"?>
<!DOCTYPE svg PUBLIC "-//W3C//DTD SVG 1.1//EN" "http://www.w3.org/Graphics/SVG/1.1/DTD/svg11.dtd">
<svg xmlns="http://www.w3.org/2000/svg" version="1.1" width="1095px" height="1095px" style="shape-rendering:geometricPrecision; text-rendering:geometricPrecision; image-rendering:optimizeQuality; fill-rule:evenodd; clip-rule:evenodd" xmlns:xlink="http://www.w3.org/1999/xlink">
<g><path style="opacity:1" fill="#000000" d="M -0.5,-0.5 C 364.5,-0.5 729.5,-0.5 1094.5,-0.5C 1094.5,364.5 1094.5,729.5 1094.5,1094.5C 729.5,1094.5 364.5,1094.5 -0.5,1094.5C -0.5,729.5 -0.5,364.5 -0.5,-0.5 Z"/></g>
<g><path style="opacity:1" fill="#9078ee" d="M 276.5,504.5 C 253.223,532.635 223.556,548.301 187.5,551.5C 126.602,551.062 85.7684,522.395 65,465.5C 51.3882,404.298 71.2215,357.464 124.5,325C 165.359,305.587 205.359,307.254 244.5,330C 294.529,366.085 310.696,413.918 293,473.5C 288.114,484.204 282.614,494.537 276.5,504.5 Z"/></g>
<g><path style="opacity:1" fill="#231d3b" d="M 904.5,431.5 C 935.653,429.719 957.319,443.553 969.5,473C 977.667,506.033 966.334,530.699 935.5,547C 905.185,557.232 880.352,549.065 861,522.5C 848.604,499.287 849.938,476.62 865,454.5C 875.461,442.025 888.628,434.358 904.5,431.5 Z"/></g>
<g><path style="opacity:1" fill="#858585" d="M 532.5,504.5 C 535.625,503.521 538.958,503.187 542.5,503.5C 542.83,522.674 542.497,541.674 541.5,560.5C 541.5,541.833 541.5,523.167 541.5,504.5C 538.5,504.5 535.5,504.5 532.5,504.5 Z"/></g>
<g><path style="opacity:1" fill="#fefefe" d="M 606.5,503.5 C 606.5,535.167 606.5,566.833 606.5,598.5C 594.167,598.5 581.833,598.5 569.5,598.5C 569.5,566.833 569.5,535.167 569.5,503.5C 581.833,503.5 594.167,503.5 606.5,503.5 Z"/></g>
<g><path style="opacity:1" fill="#bbbbbb" d="M 606.5,503.5 C 607.498,535.329 607.832,567.329 607.5,599.5C 594.656,599.829 581.989,599.495 569.5,598.5C 581.833,598.5 594.167,598.5 606.5,598.5C 606.5,566.833 606.5,535.167 606.5,503.5 Z"/></g>
<g><path style="opacity:1" fill="#8c8c8c" d="M 713.5,504.5 C 716.962,503.518 720.629,503.185 724.5,503.5C 724.821,509.026 724.488,514.36 723.5,519.5C 723.5,514.5 723.5,509.5 723.5,504.5C 720.167,504.5 716.833,504.5 713.5,504.5 Z"/></g>
<g><path style="opacity:1" fill="#483b77" d="M 276.5,504.5 C 317.453,508.721 344.287,530.388 357,569.5C 366.653,618.519 349.153,654.352 304.5,677C 252.752,692.988 213.918,677.488 188,630.5C 177.322,603.929 178.155,577.762 190.5,552C 189.552,551.517 188.552,551.351 187.5,551.5C 223.556,548.301 253.223,532.635 276.5,504.5 Z"/></g>
<g><path style="opacity:1" fill="#d5d5d6" d="M 462.5,504.5 C 459.5,504.5 456.5,504.5 453.5,504.5C 453.5,523.833 453.5,543.167 453.5,562.5C 452.503,543.007 452.17,523.34 452.5,503.5C 456.042,503.187 459.375,503.521 462.5,504.5 Z"/></g>
<g><path style="opacity:1" fill="#fbfbfb" d="M 462.5,504.5 C 471.604,504.256 479.438,507.256 486,513.5C 487.608,516.382 488.941,519.382 490,522.5C 491.453,548.123 491.953,573.79 491.5,599.5C 466.446,600.115 453.779,587.781 453.5,562.5C 453.5,543.167 453.5,523.833 453.5,504.5C 456.5,504.5 459.5,504.5 462.5,504.5 Z"/></g>
<g><path style="opacity:1" fill="#fdfdfd" d="M 532.5,504.5 C 535.5,504.5 538.5,504.5 541.5,504.5C 541.5,523.167 541.5,541.833 541.5,560.5C 541.542,586.123 528.875,599.123 503.5,599.5C 503.333,574.498 503.5,549.498 504,524.5C 508.302,510.587 517.802,503.92 532.5,504.5 Z"/></g>
<g><path style="opacity:1" fill="#fbfbfb" d="M 713.5,504.5 C 716.833,504.5 720.167,504.5 723.5,504.5C 723.5,509.5 723.5,514.5 723.5,519.5C 723.224,530.609 717.558,536.776 706.5,538C 702.5,538.333 698.5,538.667 694.5,539C 702,547.167 709.5,555.333 717,563.5C 721.118,569.52 723.452,576.187 724,583.5C 724.499,588.823 724.666,594.156 724.5,599.5C 715.161,599.666 705.827,599.5 696.5,599C 687.002,587.67 677.002,576.837 666.5,566.5C 666.167,565.5 665.5,564.833 664.5,564.5C 656.54,555.37 648.373,546.37 640,537.5C 635.118,526.716 633.284,515.382 634.5,503.5C 643.839,503.334 653.173,503.5 662.5,504C 672.55,515.261 682.717,526.428 693,537.5C 693.072,528.148 694.739,519.148 698,510.5C 702.017,505.576 707.184,503.576 713.5,504.5 Z"/></g>
<g><path style="opacity:1" fill="#f9f9f9" d="M 664.5,564.5 C 664.5,568.5 664.5,572.5 664.5,576.5C 664.985,584.084 662.652,590.584 657.5,596C 650.166,599.051 642.499,600.218 634.5,599.5C 634.334,593.158 634.5,586.825 635,580.5C 636.354,573.152 640.521,568.319 647.5,566C 653.149,565.243 658.816,564.743 664.5,564.5 Z"/></g>
<g><path style="opacity:1" fill="#5c5471" d="M 664.5,564.5 C 665.5,564.833 666.167,565.5 666.5,566.5C 665.833,569.833 665.167,573.167 664.5,576.5C 664.5,572.5 664.5,568.5 664.5,564.5 Z"/></g>
</svg>
